<?xml version="1.0" encoding="UTF-8"?>
<svg xmlns="http://www.w3.org/2000/svg" xmlns:xlink="http://www.w3.org/1999/xlink" width="32px" height="32px" viewBox="0 0 32 32" version="1.1">
<g id="surface1">
<path style=" stroke:none;fill-rule:nonzero;fill:rgb(0%,0%,0%);fill-opacity:1;" d="M 14.90625 0.0351562 C 11.582031 0.253906 8.359375 1.550781 5.746094 3.714844 C 5.265625 4.117188 4.117188 5.265625 3.71875 5.746094 C 1.742188 8.128906 0.507812 10.957031 0.132812 13.960938 C -0.449219 18.566406 0.945312 23.09375 4.003906 26.578125 C 4.40625 27.039062 5.285156 27.898438 5.746094 28.28125 C 7.101562 29.402344 8.507812 30.242188 10.101562 30.871094 C 15.078125 32.839844 20.695312 32.203125 25.078125 29.171875 C 26.476562 28.207031 27.757812 26.976562 28.800781 25.59375 C 32.144531 21.167969 32.925781 15.210938 30.847656 10.039062 C 29.671875 7.113281 27.625 4.566406 24.996094 2.769531 C 22.074219 0.765625 18.503906 -0.199219 14.90625 0.0351562 Z M 17.523438 1.582031 C 21.480469 1.996094 25.027344 3.941406 27.5 7.054688 C 30.085938 10.320312 31.152344 14.578125 30.414062 18.710938 C 29.480469 23.910156 25.726562 28.257812 20.710938 29.941406 C 19.539062 30.332031 18.410156 30.5625 17.164062 30.664062 C 16.539062 30.714844 14.964844 30.683594 14.382812 30.617188 C 11.019531 30.199219 8.070312 28.765625 5.699219 26.394531 C 2.3125 23 0.828125 18.1875 1.703125 13.402344 C 2.296875 10.152344 4.074219 7.109375 6.660156 4.929688 C 9.042969 2.925781 12 1.742188 15.136719 1.535156 C 15.707031 1.496094 16.925781 1.523438 17.523438 1.582031 Z M 17.523438 1.582031 "/>
<path style=" stroke:none;fill-rule:nonzero;fill:rgb(0%,0%,0%);fill-opacity:1;" d="M 11.863281 9.765625 C 10.167969 9.921875 8.6875 11.027344 8.109375 12.566406 C 7.9375 13.023438 7.867188 13.40625 7.847656 13.96875 C 7.832031 14.3125 7.84375 14.605469 7.871094 14.800781 C 8.03125 15.984375 8.621094 17.164062 9.71875 18.488281 C 10.707031 19.683594 12.210938 21.121094 15.582031 24.09375 L 16 24.464844 L 16.632812 23.90625 C 19.195312 21.652344 21.03125 19.917969 21.882812 18.949219 C 23.214844 17.4375 23.890625 16.226562 24.105469 14.972656 C 24.199219 14.421875 24.175781 13.59375 24.050781 13.105469 C 23.851562 12.3125 23.484375 11.640625 22.945312 11.09375 C 22.011719 10.140625 20.707031 9.660156 19.339844 9.761719 C 18.148438 9.855469 17.117188 10.324219 16.238281 11.175781 L 16.003906 11.40625 L 15.6875 11.105469 C 14.660156 10.136719 13.242188 9.640625 11.863281 9.765625 Z M 13.09375 11.066406 C 13.761719 11.214844 14.421875 11.582031 14.875 12.054688 C 14.972656 12.148438 15.253906 12.46875 15.511719 12.765625 C 15.765625 13.066406 15.984375 13.304688 16 13.304688 C 16.015625 13.304688 16.269531 13.023438 16.566406 12.6875 C 16.859375 12.34375 17.179688 11.988281 17.277344 11.90625 C 17.65625 11.5625 18.300781 11.214844 18.792969 11.089844 C 19.972656 10.792969 21.183594 11.097656 21.996094 11.902344 C 22.933594 12.832031 23.175781 14.230469 22.632812 15.613281 C 22.125 16.902344 21.003906 18.25 18.5625 20.507812 C 17.800781 21.207031 16.160156 22.683594 16.0625 22.753906 C 15.980469 22.808594 16.03125 22.847656 14.710938 21.660156 C 11.96875 19.195312 10.875 18.066406 10.050781 16.867188 C 9.148438 15.550781 8.875 14.316406 9.230469 13.175781 C 9.597656 12.003906 10.554688 11.210938 11.84375 11.003906 C 12.117188 10.960938 12.769531 10.996094 13.09375 11.066406 Z M 13.09375 11.066406 "/>
</g>
</svg>
